<svg xmlns="http://www.w3.org/2000/svg" viewBox="0 0 297 642" fill="none">
<path d="M1.00006 1L274.332 274.331C278.272 278.271 280.241 280.24 281.772 282.033C300.94 304.475 300.94 337.525 281.772 359.967C280.241 361.76 278.272 363.729 274.332 367.669L1.00006 641M1 21L260.553 280.553C263.968 283.967 265.675 285.674 267.002 287.228C283.614 306.678 283.614 335.32 267.002 354.77C265.675 356.324 263.968 358.031 260.553 361.446L1 620.998M1 41L246.776 286.776C249.665 289.665 251.11 291.11 252.232 292.424C266.289 308.882 266.289 333.118 252.232 349.576C251.11 350.89 249.665 352.335 246.776 355.224L1 601M1 61L232.999 292.999C235.362 295.362 236.544 296.544 237.463 297.62C248.963 311.085 248.963 330.915 237.463 344.38C236.544 345.456 235.362 346.638 232.999 349.001L1 581M1 81L219.221 299.221C221.06 301.06 221.979 301.979 222.693 302.815C231.638 313.289 231.638 328.711 222.693 339.185C221.979 340.021 221.06 340.94 219.221 342.779L1 561M1 101L205.444 305.444C206.757 306.757 207.414 307.414 207.924 308.011C214.313 315.492 214.313 326.508 207.924 333.989C207.414 334.586 206.757 335.243 205.444 336.556L1 541M1 121L188.555 308.555C189.606 309.606 190.131 310.131 190.539 310.609C195.65 316.593 195.65 325.407 190.539 331.391C190.131 331.869 189.606 332.394 188.555 333.445L1 521M1 141L171.666 311.666C172.454 312.454 172.848 312.848 173.154 313.207C176.988 317.695 176.988 324.305 173.154 328.793C172.848 329.152 172.454 329.546 171.666 330.334L1 501M1 161L153.222 313.222C153.878 313.878 154.207 314.207 154.462 314.506C157.657 318.246 157.657 323.754 154.462 327.494C154.207 327.793 153.878 328.122 153.222 328.778L1 481M1 181L134.777 314.777C135.303 315.303 135.565 315.565 135.77 315.804C138.325 318.797 138.325 323.203 135.77 326.196C135.565 326.435 135.303 326.697 134.777 327.223L1 461M1 201L116.333 316.333C116.727 316.727 116.924 316.924 117.077 317.103C118.994 319.348 118.994 322.652 117.077 324.897C116.924 325.076 116.727 325.273 116.333 325.667L1 441M1 221L97.8887 317.889C98.1514 318.151 98.2827 318.283 98.3848 318.402C99.6626 319.898 99.6626 322.102 98.3848 323.598C98.2827 323.717 98.1514 323.849 97.8887 324.111L1 421M1 241L79.4444 319.444C79.5757 319.576 79.6414 319.641 79.6924 319.701C80.3313 320.449 80.3313 321.551 79.6924 322.299C79.6414 322.359 79.5757 322.424 79.4444 322.556L1 401M1 261L59.4444 319.444C59.5757 319.576 59.6414 319.641 59.6924 319.701C60.3313 320.449 60.3313 321.551 59.6924 322.299C59.6414 322.359 59.5757 322.424 59.4444 322.556L1 381M1 281L39.4444 319.444C39.5757 319.576 39.6414 319.641 39.6924 319.701C40.3313 320.449 40.3313 321.551 39.6924 322.299C39.6414 322.359 39.5757 322.424 39.4444 322.556L1 361M1 301L19.4444 319.444C19.5757 319.576 19.6414 319.641 19.6924 319.701C20.3313 320.449 20.3313 321.551 19.6924 322.299C19.6414 322.359 19.5757 322.424 19.4444 322.556L1 341" stroke="url(#paint0_linear_617_132)" stroke-width="1.5"/>
<defs>
<linearGradient id="paint0_linear_617_132" x1="1" y1="160" x2="1" y2="320" gradientUnits="userSpaceOnUse">
<stop stop-color="#00D7AA"/>
<stop offset="1" stop-color="#0064FF"/>
</linearGradient>
</defs>
</svg>