<svg width="56" height="56" viewBox="0 0 56 56" fill="none" xmlns="http://www.w3.org/2000/svg">
<path d="M39.6667 16.3333V11.6666C39.6667 10.3786 40.7121 9.33325 42.0001 9.33325H46.6668C47.9548 9.33325 49.0001 10.3786 49.0001 11.6666V16.3333" stroke="#323E48" stroke-width="2.5" stroke-linecap="round" stroke-linejoin="round"/>
<path d="M39.6667 26.8333V33.8333" stroke="#45C2CC" stroke-width="2.5" stroke-linecap="round" stroke-linejoin="round"/>
<path d="M43.1667 30.3332H36.1667" stroke="#45C2CC" stroke-width="2.5" stroke-linecap="round" stroke-linejoin="round"/>
<path d="M19.8335 30.3332H12.8335" stroke="#45C2CC" stroke-width="2.5" stroke-linecap="round" stroke-linejoin="round"/>
<path d="M7 16.3333V11.6666C7 10.3786 8.04533 9.33325 9.33333 9.33325H14C15.288 9.33325 16.3333 10.3786 16.3333 11.6666V16.3333" stroke="#323E48" stroke-width="2.5" stroke-linecap="round" stroke-linejoin="round"/>
<path fill-rule="evenodd" clip-rule="evenodd" d="M39.6668 16.3332H49.0001C50.2881 16.3332 51.3334 17.3785 51.3334 18.6665V41.9998C51.3334 44.5782 49.2451 46.6665 46.6668 46.6665H9.33342C6.75508 46.6665 4.66675 44.5782 4.66675 41.9998V18.6665C4.66675 17.3785 5.71208 16.3332 7.00008 16.3332H16.3334L20.3164 12.3502C20.7551 11.9115 21.3477 11.6665 21.9661 11.6665H34.0341C34.6524 11.6665 35.2474 11.9115 35.6838 12.3502L39.6668 16.3332V16.3332Z" stroke="#323E48" stroke-width="2.5" stroke-linecap="round" stroke-linejoin="round"/>
</svg>
