<svg width="56" height="56" viewBox="0 0 56 56" fill="none" xmlns="http://www.w3.org/2000/svg">
<path d="M39.1106 36.1027H34.1665" stroke="#323E48" stroke-width="2.5" stroke-linecap="round" stroke-linejoin="round"/>
<path fill-rule="evenodd" clip-rule="evenodd" d="M46.6744 45.7009V35.493C46.6744 31.8407 43.7136 28.8799 40.0613 28.8799H13.6043C9.95199 28.8799 6.99121 31.8407 6.99121 35.493V45.7009C6.99059 46.5783 7.33888 47.42 7.95933 48.0405C8.57978 48.6609 9.42147 49.0092 10.2989 49.0086H13.567C14.444 49.0086 15.2851 48.66 15.905 48.0396C16.525 47.4193 16.8729 46.5779 16.8723 45.7009V43.516H36.7839V45.7009C36.7833 46.5787 37.1319 47.4208 37.7529 48.0413C38.3739 48.6618 39.2161 49.0098 40.094 49.0086H43.362C44.2403 49.0105 45.0832 48.6627 45.7046 48.0421C46.3261 47.4215 46.675 46.5791 46.6744 45.7009Z" stroke="#323E48" stroke-width="2.5" stroke-linecap="round" stroke-linejoin="round"/>
<path d="M41.7828 29.1116L39.8874 20.9976" stroke="#323E48" stroke-width="2.5" stroke-linecap="round" stroke-linejoin="round"/>
<path d="M32.6673 16.3286H18.7898C16.4926 16.3289 14.4978 17.9107 13.9742 20.1475L11.8733 29.1113" stroke="#323E48" stroke-width="2.5" stroke-linecap="round" stroke-linejoin="round"/>
<path d="M19.3471 36.1027H14.4031" stroke="#323E48" stroke-width="2.5" stroke-linecap="round" stroke-linejoin="round"/>
<path d="M39.2605 36.1027H34.3164" stroke="#323E48" stroke-width="2.5" stroke-linecap="round" stroke-linejoin="round"/>
<path d="M41.7285 28.6859L46.6726 26.2139" stroke="#323E48" stroke-width="2.5" stroke-linecap="round" stroke-linejoin="round"/>
<path d="M11.9353 28.6859L6.99121 26.2139" stroke="#323E48" stroke-width="2.5" stroke-linecap="round" stroke-linejoin="round"/>
<path fill-rule="evenodd" clip-rule="evenodd" d="M40.9561 4L32.1796 12.6781C32.0042 12.8517 31.9518 13.1127 32.0467 13.3394C32.1417 13.5661 32.3653 13.7141 32.6135 13.7143H36.0439V21L44.8204 12.3219C44.9958 12.1483 45.0482 11.8873 44.9533 11.6606C44.8583 11.4339 44.6347 11.2859 44.3865 11.2857H40.9561V4Z" stroke="#45C2CC" stroke-width="2.5" stroke-linecap="round" stroke-linejoin="round"/>
</svg>
