<svg width="56" height="58" viewBox="0 0 56 58" fill="none" xmlns="http://www.w3.org/2000/svg">
<path d="M40.1515 5.63527C36.0423 4.58845 31.8042 4.07415 27.5417 4.11369C20.6109 4.0494 13.7445 5.44942 7.39207 8.22212C6.18482 8.7748 5.41405 9.98424 5.42293 11.3119V28.585C5.42302 39.7613 12.3058 49.7833 22.7369 53.796L25.0985 54.7034C26.6712 55.3083 28.4123 55.3083 29.985 54.7034L32.3466 53.796C42.7777 49.7833 49.6605 39.7613 49.6606 28.585V19.9622" stroke="#323E48" stroke-width="2.5" stroke-linecap="round" stroke-linejoin="round"/>
<path d="M22.2598 25.5792C22.3332 25.7258 22.4432 25.8175 22.6632 25.7075C23.6165 25.2125 24.6798 24.5892 25.5965 24.0025V35.4792C25.5965 35.6625 25.6882 35.7358 25.8715 35.7358H27.5398C27.7598 35.7358 27.8148 35.6625 27.8148 35.4792V21.7475C27.8148 21.5458 27.7048 21.4542 27.4848 21.4542H26.2565C25.9815 21.4542 25.8898 21.5092 25.6515 21.6558C24.4598 22.4258 22.9382 23.3242 21.7465 23.9658C21.5632 24.0575 21.5265 24.2408 21.5998 24.3875L22.2598 25.5792Z" fill="#45C2CC"/>
<path d="M30.6809 18.8228C30.6389 18.8228 30.6209 18.8408 30.6209 18.8828V19.4048C30.6209 19.4468 30.6389 19.4648 30.6809 19.4648H31.9289V23.4188C31.9289 23.4728 31.9589 23.4968 32.0189 23.4968H32.5649C32.6189 23.4968 32.6549 23.4728 32.6549 23.4188V19.4648H33.8309C33.8789 19.4648 33.8969 19.4468 33.9029 19.4108L34.0049 18.8828C34.0049 18.8408 33.9929 18.8228 33.9509 18.8228H30.6809ZM36.7082 21.4088H36.6782L35.3822 18.8888C35.3522 18.8348 35.3162 18.8228 35.2442 18.8228H34.7462C34.6802 18.8228 34.6502 18.8468 34.6502 18.9008C34.5722 20.2868 34.5242 22.1648 34.5122 23.4188C34.5122 23.4728 34.5422 23.4968 34.6022 23.4968H35.1242C35.1782 23.4968 35.2082 23.4728 35.2082 23.4188C35.2082 22.2128 35.2322 20.9168 35.2682 20.0468H35.2922L36.4022 22.2008C36.4382 22.2728 36.4802 22.2908 36.5462 22.2908H36.8162C36.8822 22.2908 36.9242 22.2728 36.9602 22.2008L38.0702 20.0468H38.0942C38.1302 20.9168 38.1542 22.2128 38.1542 23.4188C38.1542 23.4728 38.1842 23.4968 38.2382 23.4968H38.7482C38.8082 23.4968 38.8382 23.4728 38.8382 23.4188C38.8262 22.1648 38.7782 20.2868 38.7002 18.9008C38.7002 18.8468 38.6702 18.8228 38.6042 18.8228H38.1422C38.0702 18.8228 38.0342 18.8348 38.0042 18.8888L36.7082 21.4088Z" fill="#45C2CC"/>
<path fill-rule="evenodd" clip-rule="evenodd" d="M52.7499 10.7401C52.7499 13.6358 50.4025 15.9832 47.5068 15.9832C44.6111 15.9832 42.2637 13.6358 42.2637 10.7401C42.2637 7.83648 45.7583 2 47.5068 2C49.2553 2 52.7499 7.83648 52.7499 10.7401Z" stroke="#45C2CC" stroke-width="2.5" stroke-linecap="round" stroke-linejoin="round"/>
</svg>
