<?xml version="1.0" encoding="UTF-8"?>
<svg xmlns="http://www.w3.org/2000/svg" width="49.827" height="55.677" viewBox="0 0 49.827 55.677">
  <g id="Group_2626" data-name="Group 2626" transform="translate(8828.25 -14029.75)">
    <g id="icon-oil2000tm" transform="translate(-8832.423 14029)">
      <path id="Path_6753" data-name="Path 6753" d="M40.152,5.635a49.229,49.229,0,0,0-12.61-1.522A49.229,49.229,0,0,0,7.392,8.222a3.373,3.373,0,0,0-1.969,3.09V28.585A27.012,27.012,0,0,0,22.737,53.8L25.1,54.7a6.806,6.806,0,0,0,4.887,0l2.362-.907A27.012,27.012,0,0,0,49.661,28.585V19.962" fill="none" stroke="#323e48" stroke-linecap="round" stroke-linejoin="round" stroke-width="2.5"></path>
      <path id="Path_6756" data-name="Path 6756" d="M52.75,10.74a5.243,5.243,0,0,1-10.486,0c0-2.9,3.495-8.74,5.243-8.74S52.75,7.836,52.75,10.74Z" fill="none" stroke="#45c2cc" stroke-linecap="round" stroke-linejoin="round" stroke-width="2.5" fill-rule="evenodd"></path>
    </g>
    <path id="Path_6757" data-name="Path 6757" d="M7.371,4.465c0,.11.033.143.143.143H11.4c-1.111,2.156-2.222,4.576-3.3,7.139-.066.143-.033.253.132.253H9.263a.351.351,0,0,0,.374-.22c.759-1.98,2-4.818,3.08-7.084a1.03,1.03,0,0,0,.121-.572V3.618c0-.143-.088-.187-.209-.187H7.514c-.121,0-.143.033-.143.143ZM18.173,8.6a3.527,3.527,0,0,1-.363,1.936,1.383,1.383,0,0,1-1.166.473,1.383,1.383,0,0,1-1.166-.473A3.527,3.527,0,0,1,15.115,8.6V6.841a3.484,3.484,0,0,1,.363-1.925,1.389,1.389,0,0,1,1.166-.484,1.389,1.389,0,0,1,1.166.484,3.484,3.484,0,0,1,.363,1.925Zm1.342-1.859a3.746,3.746,0,0,0-.748-2.7,2.882,2.882,0,0,0-2.123-.726,2.882,2.882,0,0,0-2.123.726,3.7,3.7,0,0,0-.748,2.7V8.7a3.726,3.726,0,0,0,.748,2.706,2.878,2.878,0,0,0,2.123.715,2.878,2.878,0,0,0,2.123-.715A3.777,3.777,0,0,0,19.515,8.7ZM25.367,8.6A3.527,3.527,0,0,1,25,10.537a1.383,1.383,0,0,1-1.166.473,1.383,1.383,0,0,1-1.166-.473A3.527,3.527,0,0,1,22.309,8.6V6.841a3.484,3.484,0,0,1,.363-1.925,1.647,1.647,0,0,1,2.332,0,3.484,3.484,0,0,1,.363,1.925Zm1.342-1.859a3.746,3.746,0,0,0-.748-2.7,2.882,2.882,0,0,0-2.123-.726,2.882,2.882,0,0,0-2.123.726,3.7,3.7,0,0,0-.748,2.7V8.7a3.726,3.726,0,0,0,.748,2.706,2.878,2.878,0,0,0,2.123.715,2.878,2.878,0,0,0,2.123-.715A3.777,3.777,0,0,0,26.709,8.7ZM32.561,8.6a3.527,3.527,0,0,1-.363,1.936,1.674,1.674,0,0,1-2.332,0A3.527,3.527,0,0,1,29.5,8.6V6.841a3.484,3.484,0,0,1,.363-1.925,1.646,1.646,0,0,1,2.332,0,3.484,3.484,0,0,1,.363,1.925ZM33.9,6.742a3.746,3.746,0,0,0-.748-2.7,2.882,2.882,0,0,0-2.123-.726,2.882,2.882,0,0,0-2.123.726,3.7,3.7,0,0,0-.748,2.7V8.7a3.726,3.726,0,0,0,.748,2.706,2.878,2.878,0,0,0,2.123.715,2.878,2.878,0,0,0,2.123-.715A3.777,3.777,0,0,0,33.9,8.7Z" transform="translate(-8825.88 14049)" fill="#45c2cc"></path>
  </g>
</svg>
