<svg width="56" height="56" viewBox="0 0 56 56" fill="none" xmlns="http://www.w3.org/2000/svg">
<path d="M39.6667 16.3333V11.6666C39.6667 10.3786 40.7121 9.33325 42.0001 9.33325H46.6668C47.9548 9.33325 49.0001 10.3786 49.0001 11.6666V16.3333" stroke="#323E48" stroke-width="2.5" stroke-linecap="round" stroke-linejoin="round"/>
<path d="M7 16.3333V11.6666C7 10.3786 8.04533 9.33325 9.33333 9.33325H14C15.288 9.33325 16.3333 10.3786 16.3333 11.6666V16.3333" stroke="#323E48" stroke-width="2.5" stroke-linecap="round" stroke-linejoin="round"/>
<path fill-rule="evenodd" clip-rule="evenodd" d="M39.6668 16.3332H49.0001C50.2881 16.3332 51.3334 17.3785 51.3334 18.6665V41.9998C51.3334 44.5782 49.2451 46.6665 46.6668 46.6665H9.33342C6.75508 46.6665 4.66675 44.5782 4.66675 41.9998V18.6665C4.66675 17.3785 5.71208 16.3332 7.00008 16.3332H16.3334L20.3164 12.3502C20.7551 11.9115 21.3477 11.6665 21.9661 11.6665H34.0341C34.6524 11.6665 35.2474 11.9115 35.6838 12.3502L39.6668 16.3332V16.3332Z" stroke="#323E48" stroke-width="2.5" stroke-linecap="round" stroke-linejoin="round"/>
<path d="M19.6372 34.745C18.6922 31.115 17.5522 26.81 16.5922 23.615C16.5172 23.375 16.4122 23.315 16.1122 23.315H14.3122C14.0122 23.315 13.9072 23.375 13.8322 23.615C12.7372 27.245 11.7022 31.055 10.8022 34.745C10.7572 34.925 10.8022 35 10.9972 35H12.2872C12.4822 35 12.5272 34.94 12.5722 34.775L13.0972 32.495H17.2372L17.7772 34.775C17.8222 34.94 17.8672 35 18.0622 35H19.4422C19.6372 35 19.6822 34.925 19.6372 34.745ZM15.2122 24.845C15.7522 26.675 16.3672 28.925 16.8622 31.04H13.4722C13.9972 28.91 14.5972 26.675 15.1222 24.845H15.2122ZM25.5234 24.725C26.3334 24.725 27.2484 24.83 27.9834 24.995C28.1634 25.04 28.2234 24.995 28.2234 24.845V23.735C28.2234 23.585 28.1334 23.465 27.9834 23.435C27.3084 23.285 26.2734 23.15 25.4184 23.15C22.1784 23.15 20.8734 24.455 20.8734 27.32V31.175C20.8734 33.905 22.0134 35.165 25.2234 35.165C26.2584 35.165 27.7584 34.94 28.4034 34.685C28.7634 34.535 28.7934 34.4 28.7934 34.04V28.835C28.7934 28.7 28.7334 28.64 28.5684 28.64H25.1334C24.9684 28.64 24.8784 28.7 24.8934 28.835L25.0434 30.05C25.0584 30.185 25.1034 30.245 25.2684 30.245H26.9784V33.41C26.4684 33.5 25.8234 33.56 25.2084 33.56C24.1884 33.56 23.6184 33.38 23.1984 32.93C22.8384 32.555 22.6884 31.97 22.6884 31.01V27.41C22.6884 25.415 23.3934 24.725 25.5234 24.725ZM36.3007 29.78H36.2257L32.9857 23.48C32.9107 23.345 32.8207 23.315 32.6407 23.315H31.3957C31.2307 23.315 31.1557 23.375 31.1557 23.51C30.9607 26.975 30.8407 31.67 30.8107 34.805C30.8107 34.94 30.8857 35 31.0357 35H32.3407C32.4757 35 32.5507 34.94 32.5507 34.805C32.5507 31.79 32.6107 28.55 32.7007 26.375H32.7607L35.5357 31.76C35.6257 31.94 35.7307 31.985 35.8957 31.985H36.5707C36.7357 31.985 36.8407 31.94 36.9307 31.76L39.7057 26.375H39.7657C39.8557 28.55 39.9157 31.79 39.9157 34.805C39.9157 34.94 39.9907 35 40.1257 35H41.4007C41.5507 35 41.6257 34.94 41.6257 34.805C41.5957 31.67 41.4757 26.975 41.2807 23.51C41.2807 23.375 41.2057 23.315 41.0407 23.315H39.8857C39.7057 23.315 39.6157 23.345 39.5407 23.48L36.3007 29.78Z" fill="#45C2CC"/>
</svg>
