<?xml version="1.0" encoding="UTF-8"?>
<svg xmlns="http://www.w3.org/2000/svg" width="49.827" height="55.677" viewBox="0 0 49.827 55.677">
  <g id="Group_2624" data-name="Group 2624" transform="translate(8954.25 -14028.75)">
    <g id="icon-oil2000tm" transform="translate(-8958.423 14028)">
      <path id="Path_6753" data-name="Path 6753" d="M40.152,5.635a49.229,49.229,0,0,0-12.61-1.522A49.229,49.229,0,0,0,7.392,8.222a3.373,3.373,0,0,0-1.969,3.09V28.585A27.012,27.012,0,0,0,22.737,53.8L25.1,54.7a6.806,6.806,0,0,0,4.887,0l2.362-.907A27.012,27.012,0,0,0,49.661,28.585V19.962" fill="none" stroke="#323e48" stroke-linecap="round" stroke-linejoin="round" stroke-width="2.5"></path>
      <path id="Path_6756" data-name="Path 6756" d="M52.75,10.74a5.243,5.243,0,0,1-10.486,0c0-2.9,3.495-8.74,5.243-8.74S52.75,7.836,52.75,10.74Z" fill="none" stroke="#45c2cc" stroke-linecap="round" stroke-linejoin="round" stroke-width="2.5" fill-rule="evenodd"></path>
    </g>
    <path id="Path_6759" data-name="Path 6759" d="M7.239,6.247a2.382,2.382,0,0,0,2.7,2.64,2.9,2.9,0,0,0,1.672-.495v.726a1.865,1.865,0,0,1-.407,1.408,1.951,1.951,0,0,1-1.386.418,5.717,5.717,0,0,1-1.881-.352c-.121-.044-.2.011-.176.11l.154.957a.247.247,0,0,0,.176.2,5.661,5.661,0,0,0,1.815.264,3.11,3.11,0,0,0,2.178-.66A3.14,3.14,0,0,0,12.926,9V6.214A2.968,2.968,0,0,0,12.2,3.981a2.9,2.9,0,0,0-2.046-.671A2.621,2.621,0,0,0,7.239,6.115Zm1.353-.1c0-1.133.561-1.661,1.551-1.661a1.371,1.371,0,0,1,1.089.418,2.2,2.2,0,0,1,.374,1.441v.9a2.37,2.37,0,0,1-1.551.484c-1.034,0-1.463-.473-1.463-1.551ZM18.778,8.6a3.527,3.527,0,0,1-.363,1.936,1.383,1.383,0,0,1-1.166.473,1.383,1.383,0,0,1-1.166-.473A3.527,3.527,0,0,1,15.72,8.6V6.841a3.484,3.484,0,0,1,.363-1.925,1.389,1.389,0,0,1,1.166-.484,1.389,1.389,0,0,1,1.166.484,3.484,3.484,0,0,1,.363,1.925ZM20.12,6.742a3.746,3.746,0,0,0-.748-2.7,2.882,2.882,0,0,0-2.123-.726,2.882,2.882,0,0,0-2.123.726,3.7,3.7,0,0,0-.748,2.7V8.7a3.726,3.726,0,0,0,.748,2.706,2.878,2.878,0,0,0,2.123.715,2.878,2.878,0,0,0,2.123-.715A3.777,3.777,0,0,0,20.12,8.7ZM25.972,8.6a3.527,3.527,0,0,1-.363,1.936,1.674,1.674,0,0,1-2.332,0A3.527,3.527,0,0,1,22.914,8.6V6.841a3.484,3.484,0,0,1,.363-1.925,1.647,1.647,0,0,1,2.332,0,3.484,3.484,0,0,1,.363,1.925Zm1.342-1.859a3.746,3.746,0,0,0-.748-2.7,2.882,2.882,0,0,0-2.123-.726,2.882,2.882,0,0,0-2.123.726,3.7,3.7,0,0,0-.748,2.7V8.7a3.726,3.726,0,0,0,.748,2.706,2.878,2.878,0,0,0,2.123.715,2.878,2.878,0,0,0,2.123-.715A3.777,3.777,0,0,0,27.314,8.7ZM33.166,8.6a3.527,3.527,0,0,1-.363,1.936,1.674,1.674,0,0,1-2.332,0A3.527,3.527,0,0,1,30.108,8.6V6.841a3.484,3.484,0,0,1,.363-1.925,1.647,1.647,0,0,1,2.332,0,3.484,3.484,0,0,1,.363,1.925Zm1.342-1.859a3.746,3.746,0,0,0-.748-2.7,2.882,2.882,0,0,0-2.123-.726,2.882,2.882,0,0,0-2.123.726,3.7,3.7,0,0,0-.748,2.7V8.7a3.726,3.726,0,0,0,.748,2.706,2.878,2.878,0,0,0,2.123.715,2.878,2.878,0,0,0,2.123-.715A3.777,3.777,0,0,0,34.508,8.7Z" transform="translate(-8951.88 14048)" fill="#45c2cc"></path>
    <path id="Path_6760" data-name="Path 6760" d="M2.726.884c-.04,0-.06.016-.06.052V3.948c0,.036.02.052.06.052h1.6c.044,0,.06-.016.06-.052l.04-.324c0-.036-.016-.052-.056-.052H3.15V2.648H4.186c.04,0,.056-.016.056-.052l.044-.324c0-.036-.016-.052-.06-.052H3.15V1.312H4.334c.044,0,.06-.016.06-.052L4.438.936c0-.036-.02-.052-.06-.052Z" transform="translate(-8918.5 14048.5)" fill="#45c2cc"></path>
  </g>
</svg>
