<svg width="58" height="56" viewBox="0 0 58 56" fill="none" xmlns="http://www.w3.org/2000/svg">
<path d="M37.5534 26.8333V33.8333" stroke="#45C2CC" stroke-width="2.5" stroke-linecap="round" stroke-linejoin="round"/>
<path d="M41.0535 30.3332H34.0535" stroke="#45C2CC" stroke-width="2.5" stroke-linecap="round" stroke-linejoin="round"/>
<path d="M17.7202 30.3332H10.7202" stroke="#45C2CC" stroke-width="2.5" stroke-linecap="round" stroke-linejoin="round"/>
<path d="M4.88672 16.3333V11.6666C4.88672 10.3786 5.93205 9.33325 7.22005 9.33325H11.8867C13.1747 9.33325 14.2201 10.3786 14.2201 11.6666V16.3333" stroke="#323E48" stroke-width="2.5" stroke-linecap="round" stroke-linejoin="round"/>
<path d="M37.5535 16.3332L33.5705 12.3502C33.1341 11.9115 32.5391 11.6665 31.9208 11.6665H19.8528C19.2345 11.6665 18.6418 11.9115 18.2031 12.3502L14.2201 16.3332H4.8868C3.5988 16.3332 2.55347 17.3785 2.55347 18.6665V41.9998C2.55347 44.5782 4.6418 46.6665 7.22013 46.6665H44.5535C47.1318 46.6665 49.2201 44.5782 49.2201 41.9998V25.8866" stroke="#323E48" stroke-width="2.5" stroke-linecap="round" stroke-linejoin="round"/>
<path fill-rule="evenodd" clip-rule="evenodd" d="M48.544 5.88366L50.8871 10.5021H54.8805C55.3304 10.4911 55.7411 10.7573 55.915 11.1728C56.0889 11.5882 55.9905 12.0678 55.6672 12.3811L52.0023 15.9849L54.0319 20.6542C54.2155 21.0927 54.0987 21.5996 53.7418 21.9134C53.3848 22.2272 52.8675 22.2777 52.4567 22.039L47.5471 19.275L42.6375 22.039C42.2266 22.2777 41.7093 22.2272 41.3524 21.9134C40.9954 21.5996 40.8786 21.0927 41.0623 20.6542L43.0937 15.9849L39.427 12.3736C39.1036 12.0603 39.0052 11.5807 39.1792 11.1653C39.3531 10.7498 39.7637 10.4836 40.2136 10.4946H44.207L46.552 5.88366C46.7471 5.51415 47.1304 5.28296 47.548 5.28296C47.9656 5.28296 48.3489 5.51415 48.544 5.88366Z" stroke="#45C2CC" stroke-width="2.5" stroke-linecap="round" stroke-linejoin="round"/>
</svg>
