<svg width="56" height="58" viewBox="0 0 56 58" fill="none" xmlns="http://www.w3.org/2000/svg">
<path d="M40.1515 5.63527C36.0423 4.58845 31.8042 4.07415 27.5417 4.11369C20.6109 4.0494 13.7445 5.44942 7.39207 8.22212C6.18482 8.7748 5.41405 9.98424 5.42293 11.3119V28.585C5.42302 39.7613 12.3058 49.7833 22.7369 53.796L25.0985 54.7034C26.6712 55.3083 28.4123 55.3083 29.985 54.7034L32.3466 53.796C42.7777 49.7833 49.6605 39.7613 49.6606 28.585V19.9622" stroke="#323E48" stroke-width="2.5" stroke-linecap="round" stroke-linejoin="round"/>
<path d="M10.0461 24.4162C10.0461 24.5152 10.0901 24.5702 10.1891 24.5702H13.4891C12.8621 25.2632 12.1031 26.1652 11.4761 26.9242C11.3111 27.1332 11.2451 27.2212 11.2451 27.4632V27.8152C11.2451 27.9582 11.3001 28.0132 11.4431 28.0132H12.4551C13.1151 28.0132 13.4451 28.0902 13.6871 28.2882C13.9511 28.5082 14.0611 28.8712 14.0611 29.3002V29.3772C14.0611 30.4112 13.3461 30.9062 12.2021 30.9062C11.3551 30.9062 10.5851 30.7082 10.0791 30.4662C9.98007 30.4222 9.90307 30.4662 9.90307 30.5872L10.0681 31.4892C10.1011 31.6432 10.1561 31.7312 10.2991 31.7752C10.7391 31.9292 11.4211 32.0832 12.3231 32.0832C14.0391 32.0832 15.4141 31.1592 15.4141 29.3112V29.1792C15.4141 27.8262 14.6331 26.9682 13.4011 26.9682C13.2471 26.9682 13.1041 26.9682 12.8731 26.9902C13.4451 26.2642 14.2041 25.4172 14.8971 24.6912C14.9961 24.5922 15.0401 24.4822 15.0401 24.1852V23.5472C15.0401 23.4372 14.9961 23.3932 14.8641 23.3932H10.1891C10.0901 23.3932 10.0461 23.4482 10.0461 23.5472V24.4162ZM21.0357 28.5632C21.0357 29.4322 20.9477 30.1362 20.6727 30.4992C20.4197 30.8402 19.9907 30.9722 19.5067 30.9722C19.0227 30.9722 18.5937 30.8402 18.3407 30.4992C18.0657 30.1362 17.9777 29.4322 17.9777 28.5632V26.8032C17.9777 25.9342 18.0657 25.2412 18.3407 24.8782C18.5937 24.5372 19.0227 24.3942 19.5067 24.3942C19.9907 24.3942 20.4197 24.5372 20.6727 24.8782C20.9477 25.2412 21.0357 25.9342 21.0357 26.8032V28.5632ZM22.3777 26.7042C22.3777 25.4282 22.1577 24.5482 21.6297 24.0092C21.1677 23.5362 20.4417 23.2832 19.5067 23.2832C18.5717 23.2832 17.8457 23.5362 17.3837 24.0092C16.8447 24.5482 16.6357 25.4282 16.6357 26.7042V28.6622C16.6357 29.9382 16.8447 30.8292 17.3837 31.3682C17.8457 31.8412 18.5717 32.0832 19.5067 32.0832C20.4417 32.0832 21.1677 31.8412 21.6297 31.3682C22.1577 30.8292 22.3777 29.9382 22.3777 28.6622V26.7042ZM28.2329 28.5632C28.2329 29.4322 28.1449 30.1362 27.8699 30.4992C27.6169 30.8402 27.1879 30.9722 26.7039 30.9722C26.2199 30.9722 25.7909 30.8402 25.5379 30.4992C25.2629 30.1362 25.1749 29.4322 25.1749 28.5632V26.8032C25.1749 25.9342 25.2629 25.2412 25.5379 24.8782C25.7909 24.5372 26.2199 24.3942 26.7039 24.3942C27.1879 24.3942 27.6169 24.5372 27.8699 24.8782C28.1449 25.2412 28.2329 25.9342 28.2329 26.8032V28.5632ZM29.5749 26.7042C29.5749 25.4282 29.3549 24.5482 28.8269 24.0092C28.3649 23.5362 27.6389 23.2832 26.7039 23.2832C25.7689 23.2832 25.0429 23.5362 24.5809 24.0092C24.0419 24.5482 23.8329 25.4282 23.8329 26.7042V28.6622C23.8329 29.9382 24.0419 30.8292 24.5809 31.3682C25.0429 31.8412 25.7689 32.0832 26.7039 32.0832C27.6389 32.0832 28.3649 31.8412 28.8269 31.3682C29.3549 30.8292 29.5749 29.9382 29.5749 28.6622V26.7042ZM35.4302 28.5632C35.4302 29.4322 35.3422 30.1362 35.0672 30.4992C34.8142 30.8402 34.3852 30.9722 33.9012 30.9722C33.4172 30.9722 32.9882 30.8402 32.7352 30.4992C32.4602 30.1362 32.3722 29.4322 32.3722 28.5632V26.8032C32.3722 25.9342 32.4602 25.2412 32.7352 24.8782C32.9882 24.5372 33.4172 24.3942 33.9012 24.3942C34.3852 24.3942 34.8142 24.5372 35.0672 24.8782C35.3422 25.2412 35.4302 25.9342 35.4302 26.8032V28.5632ZM36.7722 26.7042C36.7722 25.4282 36.5522 24.5482 36.0242 24.0092C35.5622 23.5362 34.8362 23.2832 33.9012 23.2832C32.9662 23.2832 32.2402 23.5362 31.7782 24.0092C31.2392 24.5482 31.0302 25.4282 31.0302 26.7042V28.6622C31.0302 29.9382 31.2392 30.8292 31.7782 31.3682C32.2402 31.8412 32.9662 32.0832 33.9012 32.0832C34.8362 32.0832 35.5622 31.8412 36.0242 31.3682C36.5522 30.8292 36.7722 29.9382 36.7722 28.6622V26.7042Z" fill="#45C2CC"/>
<path d="M39.3034 21.9028C39.2754 21.9028 39.2634 21.9148 39.2634 21.9428V22.2908C39.2634 22.3188 39.2754 22.3308 39.3034 22.3308H40.1354V24.9668C40.1354 25.0028 40.1554 25.0188 40.1954 25.0188H40.5594C40.5954 25.0188 40.6194 25.0028 40.6194 24.9668V22.3308H41.4034C41.4354 22.3308 41.4474 22.3188 41.4514 22.2948L41.5194 21.9428C41.5194 21.9148 41.5114 21.9028 41.4834 21.9028H39.3034ZM43.3215 23.6268H43.3015L42.4375 21.9468C42.4175 21.9108 42.3935 21.9028 42.3455 21.9028H42.0135C41.9695 21.9028 41.9495 21.9188 41.9495 21.9548C41.8975 22.8788 41.8655 24.1308 41.8575 24.9668C41.8575 25.0028 41.8775 25.0188 41.9175 25.0188H42.2655C42.3015 25.0188 42.3215 25.0028 42.3215 24.9668C42.3215 24.1628 42.3375 23.2988 42.3615 22.7188H42.3775L43.1175 24.1548C43.1415 24.2028 43.1695 24.2148 43.2135 24.2148H43.3935C43.4375 24.2148 43.4655 24.2028 43.4895 24.1548L44.2295 22.7188H44.2455C44.2695 23.2988 44.2855 24.1628 44.2855 24.9668C44.2855 25.0028 44.3055 25.0188 44.3415 25.0188H44.6815C44.7215 25.0188 44.7415 25.0028 44.7415 24.9668C44.7335 24.1308 44.7015 22.8788 44.6495 21.9548C44.6495 21.9188 44.6295 21.9028 44.5855 21.9028H44.2775C44.2295 21.9028 44.2055 21.9108 44.1855 21.9468L43.3215 23.6268Z" fill="#45C2CC"/>
<path fill-rule="evenodd" clip-rule="evenodd" d="M52.7499 10.7401C52.7499 13.6358 50.4025 15.9832 47.5068 15.9832C44.6111 15.9832 42.2637 13.6358 42.2637 10.7401C42.2637 7.83648 45.7583 2 47.5068 2C49.2553 2 52.7499 7.83648 52.7499 10.7401Z" stroke="#45C2CC" stroke-width="2.5" stroke-linecap="round" stroke-linejoin="round"/>
</svg>
