<svg width="28" height="28" viewBox="0 0 28 28" fill="none" xmlns="http://www.w3.org/2000/svg">
<path d="M6.97266 6.40723C7.18419 6.40723 7.35568 6.57185 7.35568 6.77492" stroke="#323E48" stroke-width="2" stroke-linecap="round" stroke-linejoin="round"/>
<path d="M6.59082 6.77492C6.59082 6.57185 6.7623 6.40723 6.97384 6.40723" stroke="#323E48" stroke-width="2" stroke-linecap="round" stroke-linejoin="round"/>
<path d="M6.97384 7.14309C6.7623 7.14309 6.59082 6.97846 6.59082 6.77539" stroke="#323E48" stroke-width="2" stroke-linecap="round" stroke-linejoin="round"/>
<path d="M7.35568 6.77539C7.35568 6.97846 7.18419 7.14309 6.97266 7.14309" stroke="#323E48" stroke-width="2" stroke-linecap="round" stroke-linejoin="round"/>
<path fill-rule="evenodd" clip-rule="evenodd" d="M6.97318 2.36279C9.51161 2.36279 11.5694 4.33828 11.5694 6.77517C11.5694 8.65876 8.82393 12.2426 7.57682 13.7742C7.43164 13.9526 7.20898 14.0568 6.97318 14.0568C6.73738 14.0568 6.51472 13.9526 6.36954 13.7742C5.12243 12.2436 2.37695 8.65876 2.37695 6.77517C2.37695 4.33828 4.43475 2.36279 6.97318 2.36279V2.36279Z" stroke="#323E48" stroke-width="2" stroke-linecap="round" stroke-linejoin="round"/>
<path d="M20.7617 16.7759C20.9733 16.7759 21.1447 16.9405 21.1447 17.1436" stroke="#323E48" stroke-width="2" stroke-linecap="round" stroke-linejoin="round"/>
<path d="M20.3789 17.1436C20.3789 16.9405 20.5504 16.7759 20.7619 16.7759" stroke="#323E48" stroke-width="2" stroke-linecap="round" stroke-linejoin="round"/>
<path d="M20.7619 17.5117C20.5504 17.5117 20.3789 17.3471 20.3789 17.144" stroke="#323E48" stroke-width="2" stroke-linecap="round" stroke-linejoin="round"/>
<path d="M21.1447 17.1431C21.1447 17.3461 20.9733 17.5108 20.7617 17.5108" stroke="#323E48" stroke-width="2" stroke-linecap="round" stroke-linejoin="round"/>
<path fill-rule="evenodd" clip-rule="evenodd" d="M20.7622 12.731C23.3007 12.731 25.3585 14.7064 25.3585 17.1433C25.3585 19.0269 22.613 22.6108 21.3659 24.1423C21.2207 24.3207 20.998 24.425 20.7622 24.425C20.5264 24.425 20.3038 24.3207 20.1586 24.1423C18.9115 22.6108 16.166 19.0269 16.166 17.1433C16.166 14.7064 18.2238 12.731 20.7622 12.731V12.731Z" stroke="#323E48" stroke-width="2" stroke-linecap="round" stroke-linejoin="round"/>
<path d="M6.97266 17.0708V20.0124" stroke="#45C2CC" stroke-width="2" stroke-linecap="round" stroke-linejoin="round"/>
<path d="M6.97266 22.9536C6.97266 23.7659 7.65859 24.4244 8.50473 24.4244H10.0368" stroke="#45C2CC" stroke-width="2" stroke-linecap="round" stroke-linejoin="round"/>
<path d="M13.1016 24.4248H14.6336" stroke="#45C2CC" stroke-width="2" stroke-linecap="round" stroke-linejoin="round"/>
</svg>
