<svg width="56" height="58" viewBox="0 0 56 58" fill="none" xmlns="http://www.w3.org/2000/svg">
<path d="M40.1515 5.63527C36.0423 4.58845 31.8042 4.07415 27.5417 4.11369C20.6109 4.0494 13.7445 5.44942 7.39207 8.22212C6.18482 8.7748 5.41405 9.98424 5.42293 11.3119V28.585C5.42302 39.7613 12.3058 49.7833 22.7369 53.796L25.0985 54.7034C26.6712 55.3083 28.4123 55.3083 29.985 54.7034L32.3466 53.796C42.7777 49.7833 49.6605 39.7613 49.6606 28.585V19.9622" stroke="#323E48" stroke-width="2.5" stroke-linecap="round" stroke-linejoin="round"/>
<path d="M13.2403 30.7852L14.4943 29.5752C15.9463 28.1782 16.8043 26.9022 16.8043 25.6482V25.5602C16.8043 24.1302 15.8143 23.2832 14.0543 23.2832C13.2513 23.2832 12.4593 23.4372 11.9093 23.6352C11.8103 23.6682 11.7663 23.7232 11.7663 23.8442V24.6912C11.7663 24.8122 11.8103 24.8562 11.9423 24.8122C12.4483 24.6362 13.1963 24.4602 13.9883 24.4602C14.9343 24.4602 15.4623 24.8672 15.4623 25.6702V25.7252C15.4623 26.7372 14.8353 27.6062 13.0313 29.3442L11.6673 30.6642C11.5463 30.7852 11.4913 30.8842 11.4913 31.0822V31.7752C11.4913 31.9182 11.5463 31.9622 11.7223 31.9622H16.3203C16.4303 31.9622 16.4633 31.9072 16.4743 31.8302L16.6503 30.9062C16.6613 30.8292 16.6063 30.7852 16.4963 30.7852H13.2403ZM22.5464 28.5632C22.5464 29.4322 22.4584 30.1362 22.1834 30.4992C21.9304 30.8402 21.5014 30.9722 21.0174 30.9722C20.5334 30.9722 20.1044 30.8402 19.8514 30.4992C19.5764 30.1362 19.4884 29.4322 19.4884 28.5632V26.8032C19.4884 25.9342 19.5764 25.2412 19.8514 24.8782C20.1044 24.5372 20.5334 24.3942 21.0174 24.3942C21.5014 24.3942 21.9304 24.5372 22.1834 24.8782C22.4584 25.2412 22.5464 25.9342 22.5464 26.8032V28.5632ZM23.8884 26.7042C23.8884 25.4282 23.6684 24.5482 23.1404 24.0092C22.6784 23.5362 21.9524 23.2832 21.0174 23.2832C20.0824 23.2832 19.3564 23.5362 18.8944 24.0092C18.3554 24.5482 18.1464 25.4282 18.1464 26.7042V28.6622C18.1464 29.9382 18.3554 30.8292 18.8944 31.3682C19.3564 31.8412 20.0824 32.0832 21.0174 32.0832C21.9524 32.0832 22.6784 31.8412 23.1404 31.3682C23.6684 30.8292 23.8884 29.9382 23.8884 28.6622V26.7042ZM29.7437 28.5632C29.7437 29.4322 29.6557 30.1362 29.3807 30.4992C29.1277 30.8402 28.6987 30.9722 28.2147 30.9722C27.7307 30.9722 27.3017 30.8402 27.0487 30.4992C26.7737 30.1362 26.6857 29.4322 26.6857 28.5632V26.8032C26.6857 25.9342 26.7737 25.2412 27.0487 24.8782C27.3017 24.5372 27.7307 24.3942 28.2147 24.3942C28.6987 24.3942 29.1277 24.5372 29.3807 24.8782C29.6557 25.2412 29.7437 25.9342 29.7437 26.8032V28.5632ZM31.0857 26.7042C31.0857 25.4282 30.8657 24.5482 30.3377 24.0092C29.8757 23.5362 29.1497 23.2832 28.2147 23.2832C27.2797 23.2832 26.5537 23.5362 26.0917 24.0092C25.5527 24.5482 25.3437 25.4282 25.3437 26.7042V28.6622C25.3437 29.9382 25.5527 30.8292 26.0917 31.3682C26.5537 31.8412 27.2797 32.0832 28.2147 32.0832C29.1497 32.0832 29.8757 31.8412 30.3377 31.3682C30.8657 30.8292 31.0857 29.9382 31.0857 28.6622V26.7042ZM36.9409 28.5632C36.9409 29.4322 36.8529 30.1362 36.5779 30.4992C36.3249 30.8402 35.8959 30.9722 35.4119 30.9722C34.9279 30.9722 34.4989 30.8402 34.2459 30.4992C33.9709 30.1362 33.8829 29.4322 33.8829 28.5632V26.8032C33.8829 25.9342 33.9709 25.2412 34.2459 24.8782C34.4989 24.5372 34.9279 24.3942 35.4119 24.3942C35.8959 24.3942 36.3249 24.5372 36.5779 24.8782C36.8529 25.2412 36.9409 25.9342 36.9409 26.8032V28.5632ZM38.2829 26.7042C38.2829 25.4282 38.0629 24.5482 37.5349 24.0092C37.0729 23.5362 36.3469 23.2832 35.4119 23.2832C34.4769 23.2832 33.7509 23.5362 33.2889 24.0092C32.7499 24.5482 32.5409 25.4282 32.5409 26.7042V28.6622C32.5409 29.9382 32.7499 30.8292 33.2889 31.3682C33.7509 31.8412 34.4769 32.0832 35.4119 32.0832C36.3469 32.0832 37.0729 31.8412 37.5349 31.3682C38.0629 30.8292 38.2829 29.9382 38.2829 28.6622V26.7042Z" fill="#45C2CC"/>
<path d="M39.3034 21.9028C39.2754 21.9028 39.2634 21.9148 39.2634 21.9428V22.2908C39.2634 22.3188 39.2754 22.3308 39.3034 22.3308H40.1354V24.9668C40.1354 25.0028 40.1554 25.0188 40.1954 25.0188H40.5594C40.5954 25.0188 40.6194 25.0028 40.6194 24.9668V22.3308H41.4034C41.4354 22.3308 41.4474 22.3188 41.4514 22.2948L41.5194 21.9428C41.5194 21.9148 41.5114 21.9028 41.4834 21.9028H39.3034ZM43.3215 23.6268H43.3015L42.4375 21.9468C42.4175 21.9108 42.3935 21.9028 42.3455 21.9028H42.0135C41.9695 21.9028 41.9495 21.9188 41.9495 21.9548C41.8975 22.8788 41.8655 24.1308 41.8575 24.9668C41.8575 25.0028 41.8775 25.0188 41.9175 25.0188H42.2655C42.3015 25.0188 42.3215 25.0028 42.3215 24.9668C42.3215 24.1628 42.3375 23.2988 42.3615 22.7188H42.3775L43.1175 24.1548C43.1415 24.2028 43.1695 24.2148 43.2135 24.2148H43.3935C43.4375 24.2148 43.4655 24.2028 43.4895 24.1548L44.2295 22.7188H44.2455C44.2695 23.2988 44.2855 24.1628 44.2855 24.9668C44.2855 25.0028 44.3055 25.0188 44.3415 25.0188H44.6815C44.7215 25.0188 44.7415 25.0028 44.7415 24.9668C44.7335 24.1308 44.7015 22.8788 44.6495 21.9548C44.6495 21.9188 44.6295 21.9028 44.5855 21.9028H44.2775C44.2295 21.9028 44.2055 21.9108 44.1855 21.9468L43.3215 23.6268Z" fill="#45C2CC"/>
<path fill-rule="evenodd" clip-rule="evenodd" d="M52.7499 10.7401C52.7499 13.6358 50.4025 15.9832 47.5068 15.9832C44.6111 15.9832 42.2637 13.6358 42.2637 10.7401C42.2637 7.83648 45.7583 2 47.5068 2C49.2553 2 52.7499 7.83648 52.7499 10.7401Z" stroke="#45C2CC" stroke-width="2.5" stroke-linecap="round" stroke-linejoin="round"/>
</svg>
