<svg width="200" height="176" viewBox="0 0 200 176" fill="none" xmlns="http://www.w3.org/2000/svg">
  <path d="M181 20L100 65M100 155V65M19 20L100 65" stroke="#00D7AA" stroke-width="1.5"/>
  <g>
    <circle cx="100" cy="65" r="50" fill="#0F2341" stroke="url(#gradient-1)" stroke-width="1.5"/> 
    <circle cx="100" cy="65" r="40" stroke="url(#gradient-2)" stroke-width="1.5"/>
    <circle cx="100" cy="65" r="60" stroke="url(#gradient-3)" stroke-width="1.5"/>
    <animateTransform attributeName="transform" type="rotate" from="0 100 65" to="-360 100 65" dur="4s" repeatCount="indefinite"/>
  </g>
  <circle cx="180" cy="20" r="20" fill="#00D7AA"/>
  <path fill-rule="evenodd" clip-rule="evenodd" d="M170.688 12C169.756 12 169 12.7559 169 13.6875V23.9375C169 24.8691 169.756 25.625 170.688 25.625H171.75C171.75 27.4883 173.262 29 175.125 29C176.988 29 178.5 27.4883 178.5 25.625H184C184 27.4883 185.512 29 187.375 29C189.238 29 190.75 27.4883 190.75 25.625H191.875C192.497 25.625 193 25.1223 193 24.5C193 23.8777 192.497 23.375 191.875 23.375V22.125V21V20.3426C191.875 19.7449 191.639 19.1719 191.218 18.75L188.5 16.0324C188.078 15.6105 187.505 15.375 186.907 15.375H185.125V13.6875C185.125 12.7559 184.369 12 183.438 12H170.688ZM185.125 17.625H186.907L189.625 20.3426V21H185.125V17.625ZM173.438 25.625C173.438 25.1774 173.615 24.7482 173.932 24.4318C174.248 24.1153 174.677 23.9375 175.125 23.9375C175.573 23.9375 176.002 24.1153 176.318 24.4318C176.635 24.7482 176.812 25.1774 176.812 25.625C176.812 26.0726 176.635 26.5018 176.318 26.8182C176.002 27.1347 175.573 27.3125 175.125 27.3125C174.677 27.3125 174.248 27.1347 173.932 26.8182C173.615 26.5018 173.438 26.0726 173.438 25.625ZM187.375 23.9375C187.823 23.9375 188.252 24.1153 188.568 24.4318C188.885 24.7482 189.062 25.1774 189.062 25.625C189.062 26.0726 188.885 26.5018 188.568 26.8182C188.252 27.1347 187.823 27.3125 187.375 27.3125C186.927 27.3125 186.498 27.1347 186.182 26.8182C185.865 26.5018 185.688 26.0726 185.688 25.625C185.688 25.1774 185.865 24.7482 186.182 24.4318C186.498 24.1153 186.927 23.9375 187.375 23.9375ZM173.251 15.2396C173.586 14.9201 174.128 14.9201 174.463 15.2396L176.749 17.4215C177.084 17.741 177.084 18.259 176.749 18.5785L174.463 20.7604C174.128 21.0799 173.586 21.0799 173.251 20.7604C172.916 20.4408 172.916 19.9228 173.251 19.6033L174.931 18L173.251 16.3967C172.916 16.0772 172.916 15.5592 173.251 15.2396ZM179.463 15.2396C179.128 14.9201 178.586 14.9201 178.251 15.2396C177.916 15.5592 177.916 16.0772 178.251 16.3967L179.931 18L178.251 19.6033C177.916 19.9228 177.916 20.4408 178.251 20.7604C178.586 21.0799 179.128 21.0799 179.463 20.7604L181.749 18.5785C182.084 18.259 182.084 17.741 181.749 17.4215L179.463 15.2396Z" fill="#0F2341"/>
  <circle cx="100" cy="156" r="20" fill="#00D7AA"/>
  <path d="M103.75 158.5C107.203 158.5 110 155.703 110 152.25C110 151.652 109.914 151.074 109.758 150.523C109.637 150.102 109.117 150.008 108.809 150.316L105.809 153.316C105.691 153.434 105.531 153.5 105.367 153.5H103.125C102.781 153.5 102.5 153.219 102.5 152.875V150.633C102.5 150.469 102.566 150.309 102.684 150.191L105.684 147.191C105.992 146.883 105.895 146.363 105.477 146.242C104.926 146.086 104.348 146 103.75 146C100.297 146 97.5 148.797 97.5 152.25C97.5 152.996 97.6328 153.715 97.8711 154.379L90.7773 161.473C90.2812 161.969 90 162.645 90 163.348C90 164.813 91.1875 166 92.6523 166C93.3555 166 94.0313 165.719 94.5273 165.223L101.621 158.129C102.285 158.371 103.004 158.5 103.75 158.5ZM93.125 161.938C93.3736 161.938 93.6121 162.036 93.7879 162.212C93.9637 162.388 94.0625 162.626 94.0625 162.875C94.0625 163.124 93.9637 163.362 93.7879 163.538C93.6121 163.714 93.3736 163.812 93.125 163.812C92.8764 163.812 92.6379 163.714 92.4621 163.538C92.2863 163.362 92.1875 163.124 92.1875 162.875C92.1875 162.626 92.2863 162.388 92.4621 162.212C92.6379 162.036 92.8764 161.938 93.125 161.938Z" fill="#0F2341"/>
  <circle cx="20" cy="20" r="20" fill="#00D7AA"/>
  <path d="M11 23C11 24.1 11.3917 25.0417 12.175 25.825C12.9583 26.6083 13.9 27 15 27L23.175 27C23.3917 27.5833 23.7542 28.0625 24.2625 28.4375C24.7708 28.8125 25.35 29 26 29C26.8333 29 27.5417 28.7083 28.125 28.125C28.7083 27.5417 29 26.8333 29 26C29 25.1667 28.7083 24.4583 28.125 23.875C27.5417 23.2917 26.8333 23 26 23C25.35 23 24.7708 23.1875 24.2625 23.5625C23.7542 23.9375 23.3917 24.4167 23.175 25L15 25C14.45 25 13.9792 24.8042 13.5875 24.4125C13.1958 24.0208 13 23.55 13 23C13 22.45 13.1958 21.9792 13.5875 21.5875C13.9792 21.1958 14.45 21 15 21L25 21C26.1 21 27.0417 20.6083 27.825 19.825C28.6083 19.0417 29 18.1 29 17C29 15.9 28.6083 14.9583 27.825 14.175C27.0417 13.3917 26.1 13 25 13L16.825 13C16.6083 12.4167 16.2458 11.9375 15.7375 11.5625C15.2292 11.1875 14.65 11 14 11C13.1667 11 12.4583 11.2917 11.875 11.875C11.2917 12.4583 11 13.1667 11 14C11 14.8333 11.2917 15.5417 11.875 16.125C12.4583 16.7083 13.1667 17 14 17C14.65 17 15.2333 16.8125 15.75 16.4375C16.2667 16.0625 16.625 15.5833 16.825 15L25 15C25.55 15 26.0208 15.1958 26.4125 15.5875C26.8042 15.9792 27 16.45 27 17C27 17.55 26.8042 18.0208 26.4125 18.4125C26.0208 18.8042 25.55 19 25 19L15 19C13.9 19 12.9583 19.3917 12.175 20.175C11.3917 20.9583 11 21.9 11 23Z" fill="#0F2341"/>
  <path fill-rule="evenodd" clip-rule="evenodd" d="M130 65.0002C130 48.4314 116.568 35 100 35C83.4313 35 70 48.4314 70 65.0002C70 81.5686 83.4313 95 100 95C116.568 95 130 81.5686 130 65.0002ZM98.3843 80.0318V65.9332L86.1719 58.8838C84.5813 60.2888 82.2101 60.5939 80.2706 59.4743C77.8418 58.0724 77.0097 54.9675 78.4119 52.5393C79.8141 50.1111 82.9197 49.2791 85.3484 50.681C87.288 51.8006 88.2093 54.0062 87.7876 56.0859L100 63.1353L112.212 56.0859C111.791 54.0062 112.712 51.8006 114.652 50.681C117.08 49.2791 120.186 50.1111 121.588 52.5393C122.99 54.9675 122.158 58.0724 119.729 59.4743C117.79 60.5939 115.419 60.2888 113.828 58.8838L101.616 65.9332V80.0318C103.628 80.7066 105.078 82.6071 105.078 84.8463C105.078 87.6501 102.804 89.9231 100 89.9231C97.1956 89.9231 94.9221 87.6501 94.9221 84.8463C94.9221 82.6071 96.372 80.7066 98.3843 80.0318Z" fill="#0064FF"/>
  <defs>
    <linearGradient id="gradient-1" x1="100" y1="15" x2="100" y2="115" gradientUnits="userSpaceOnUse">
      <stop stop-color="#00D7AA"/>
      <stop offset="1" stop-color="#0064FF"/>
    </linearGradient>
    <linearGradient id="gradient-2" x1="100" y1="25" x2="100" y2="105" gradientUnits="userSpaceOnUse">
      <stop stop-color="#00D7AA"/>
      <stop offset="1" stop-color="#0064FF"/>
    </linearGradient>
    <linearGradient id="gradient-3" x1="100" y1="5" x2="100" y2="125" gradientUnits="userSpaceOnUse">
      <stop stop-color="#00D7AA"/>
      <stop offset="1" stop-color="#0064FF"/>
    </linearGradient>
  </defs>
</svg>
